<svg xmlns="http://www.w3.org/2000/svg" viewBox="0 0 124 124" fill="none">
  <!-- Slack Logo - Using official Slack brand colors -->
  <!-- Top-left: Green/Teal -->
  <path d="M26.4 78.9c0 7.1-5.8 12.9-12.9 12.9S0.5 86 0.5 78.9c0-7.1 5.8-12.9 12.9-12.9h12.9v12.9zm6.5 0c0-7.1 5.8-12.9 12.9-12.9s12.9 5.8 12.9 12.9v32.4c0 7.1-5.8 12.9-12.9 12.9s-12.9-5.8-12.9-12.9V78.9z" fill="#E01E5A"/>

  <!-- Top-right: Blue -->
  <path d="M45.8 26.4c-7.1 0-12.9-5.8-12.9-12.9S38.7 0.5 45.8 0.5c7.1 0 12.9 5.8 12.9 12.9v12.9H45.8zm0 6.5c7.1 0 12.9 5.8 12.9 12.9s-5.8 12.9-12.9 12.9H13.4c-7.1 0-12.9-5.8-12.9-12.9s5.8-12.9 12.9-12.9h32.4z" fill="#36C5F0"/>

  <!-- Bottom-right: Yellow/Green -->
  <path d="M98.1 45.8c0-7.1 5.8-12.9 12.9-12.9s12.9 5.8 12.9 12.9-5.8 12.9-12.9 12.9H98.1V45.8zm-6.5 0c0 7.1-5.8 12.9-12.9 12.9s-12.9-5.8-12.9-12.9V13.4c0-7.1 5.8-12.9 12.9-12.9s12.9 5.8 12.9 12.9v32.4z" fill="#2EB67D"/>

  <!-- Bottom-left: Red/Yellow -->
  <path d="M78.7 98.1c7.1 0 12.9 5.8 12.9 12.9s-5.8 12.9-12.9 12.9c-7.1 0-12.9-5.8-12.9-12.9V98.1h12.9zm0-6.5c-7.1 0-12.9-5.8-12.9-12.9s5.8-12.9 12.9-12.9h32.4c7.1 0 12.9 5.8 12.9 12.9s-5.8 12.9-12.9 12.9H78.7z" fill="#ECB22E"/>
</svg>
