<svg xmlns="http://www.w3.org/2000/svg" viewBox="0 0 2228 2073">
  <path fill="#5059c9" d="M1554.637 777.5H2092.9c73.5 0 135.1 59.5 135.1 135.1v582.4c0 75.6-61.6 135.1-135.1 135.1h-456c-26.4 0-47.8-21.4-47.8-47.8V937c-.1-88-71.4-159.5-159.4-159.5z"/>
  <circle fill="#5059c9" cx="1943.7" cy="440.6" r="233.1"/>
  <circle fill="#7b83eb" cx="1218.5" cy="340.6" r="340.6"/>
  <path fill="#7b83eb" d="M1667.3 777.5H717.7c-82.3 0-149.2 66.9-149.2 149.2v616.7c0 82.3 66.9 149.2 149.2 149.2h949.6c82.3 0 149.2-66.9 149.2-149.2V926.7c0-82.3-66.9-149.2-149.2-149.2z"/>
  <path fill="#fff" d="M1244 777.5v838.7c0 27.4-16.6 52.1-42.1 62.4-8.4 3.4-17.3 5.1-26.3 5.1-17.9 0-35.2-7.1-47.9-19.8l-445.5-445.5c-18.7-18.7-18.7-49.1 0-67.9l445.5-445.5c12.7-12.7 30-19.8 47.9-19.8 9 0 17.9 1.7 26.3 5.1 25.5 10.3 42.1 35 42.1 62.4v24.8z"/>
  <path fill="#fff" d="M1175.6 685.7c0-6.5.4-12.9 1.1-19.3H596.4c-25.5 0-46.2 20.7-46.2 46.2v557.5c0 25.5 20.7 46.2 46.2 46.2h580.3c-.7-6.4-1.1-12.8-1.1-19.3V685.7z" opacity=".1"/>
</svg>
